<svg xmlns="http://www.w3.org/2000/svg" viewBox="0 0 97.4 95.6"><defs><linearGradient gradientUnits="userSpaceOnUse" y2="80.287" x2="15.858" y1="58.952" x1="15.858" id="f" gradientTransform="translate(-1.1 -34.5)"><stop stop-color="#F0F0F0"/><stop stop-color="#E8E8E8" offset="1"/></linearGradient><linearGradient gradientUnits="userSpaceOnUse" y2="128.673" x2="13.871" y1="108.515" x1="13.871" id="e" gradientTransform="translate(-1.1 -34.5)"><stop stop-color="#F0F0F0"/><stop stop-color="#E8E8E8" offset="1"/></linearGradient><linearGradient gradientUnits="userSpaceOnUse" y2="94.005" x2="48.272" y1="94.005" x1="28.871" id="d" gradientTransform="translate(-1.1 -34.5)"><stop stop-color="#F0F0F0"/><stop stop-color="#E8E8E8" offset="1"/></linearGradient><linearGradient gradientUnits="userSpaceOnUse" y2="45.718" x2="97.47" y1="45.718" x1="78.07" id="c" gradientTransform="translate(-1.1 -34.5)"><stop stop-color="#F0F0F0"/><stop stop-color="#E8E8E8" offset="1"/></linearGradient><linearGradient gradientUnits="userSpaceOnUse" y2="79.396" x2="61.471" y1="58.933" x1="61.471" id="b" gradientTransform="translate(-1.1 -34.5)"><stop stop-color="#F0F0F0"/><stop stop-color="#E8E8E8" offset="1"/></linearGradient><linearGradient gradientUnits="userSpaceOnUse" y2="128.579" x2="62.118" y1="106.74" x1="62.118" id="a" gradientTransform="translate(-1.1 -34.5)"><stop stop-color="#F0F0F0"/><stop stop-color="#E8E8E8" offset="1"/></linearGradient></defs><path d="M73.8 93.5L49.2 71.6l-.9 1.1 24.6 21.9z" fill="url(#a)"/><path d="M49.2 45.3l23.3-20.4-.9-1-23.3 20.4z" fill="url(#b)"/><path d="M77.1 21.4c.5 0 1.8-.1 4.6-.5 1-.2 2.1-.3 3.1-.5 1.3-.2 2.5-.5 3.8-.8.4-.1.7-.2 1.1-.3.2-.1.5-.1.7-.2 1-.3 2.6-.9 3-1 1.4-.6 2.3-1.1 2.8-2.2.2-.4.2-.9.2-1.3s-.2-.8-.4-1.1c-.2-.3-.5-.6-.7-.9-.5-.5-1.1-.9-1.7-1.2-.2-.1-.4-.2-.5-.3-.2-.1-.5-.2-.7-.3-.3-.1-.7-.3-1-.4-.9-.3-1.7-.6-2.6-.8-.5-.2-1-.3-1.5-.5l-.6-.3c-.2-.1-.5-.2-.7-.4-.3-.2-.7-.4-.6-.8.1-.3.4-.4.6-.5.2-.1.5-.2.7-.2.7-.2 1.4-.3 2.2-.5.2 0 .4-.1.6-.1.6-.1 1.1-.2 1.7-.4.5-.2 1.1-.5 1.2-1 .2-.7 0-1.5-.4-2.2-.1-.2-.3-.4-.5-.7-.2-.3-.4-.6-.7-.9-.1-.1-.2-.1-.3-.1-.1 0-.5.5-3.6 1.1-.6.1-1.1.2-1.7.3-.4.1-.7.2-1.1.2-.3.1-.7.2-1 .3-.3.1-.6.2-1 .3-.6.2-1.2.6-1.7 1-.3.3-.6.5-.8.9-.2.2-.3.5-.4.7-.1.2-.2.5-.2.8 0 .8.5 1.5 1.1 2 .2.2.4.3.6.5.6.4 1.3.8 2 1.1.7.3 1.4.7 2.2 1 .7.3 1.4.5 2.1.8.2.1.4.1.6.2.6.2 1.3.4 1.9.6.4.1.8.3 1.2.5l1.2.6c.2.2.5.4.6.7.2.3.2.5.3.8 0 .3-.1.6-.2.8-.4.6-1.1 1.1-1.8 1.3-1 .4-2 .8-3.1 1.1-.6.2-1.2.3-1.8.5-.6.2-1.2.3-1.8.5-.6.2-1.2.3-1.8.4-.3.1-.7.1-1 .2-.2 0-.4.1-.6.1-.4.1-.9.2-1.3.3l-1.5.3c-.1 0-.3.1-.4.1-.3.3-.8.4-.4.4z" fill="url(#c)"/><path d="M27.9 69.7c.5 0 1.8-.1 4.6-.5 1-.2 2.1-.3 3.1-.5 1.3-.2 2.5-.5 3.8-.8.4-.1.7-.2 1.1-.3.2-.1.5-.1.7-.2 1-.3 2.6-.9 3-1 1.4-.6 2.3-1.1 2.8-2.2.2-.4.2-.9.2-1.3s-.2-.8-.4-1.1c-.2-.3-.5-.6-.7-.9-.5-.5-1.1-.9-1.7-1.2-.2-.1-.4-.2-.5-.3-.2-.1-.5-.2-.7-.3-.3-.1-.7-.3-1-.4-.9-.3-1.7-.6-2.6-.8-.5-.2-1-.3-1.5-.5l-.6-.3c-.2-.1-.5-.2-.7-.4-.3-.2-.7-.4-.6-.8.1-.3.4-.4.6-.5.2-.1.5-.2.7-.2.7-.2 1.4-.3 2.2-.5.2 0 .4-.1.6-.1.6-.1 1.1-.2 1.7-.4.5-.2 1.1-.5 1.2-1 .2-.7 0-1.5-.4-2.2-.1-.2-.3-.4-.5-.7-.2-.3-.4-.6-.7-.9-.1-.1-.2-.1-.3-.1-.1 0-.5.5-3.6 1.1-.6.1-1.1.2-1.7.3-.4.1-.7.2-1.1.2-.3.1-.7.2-1 .3-.3.1-.6.2-1 .3-.6.2-1.2.6-1.7 1-.3.3-.6.5-.8.9-.2.2-.3.5-.4.7-.1.2-.2.5-.2.8 0 .8.5 1.5 1.1 2 .2.2.4.3.6.5.6.4 1.3.8 2 1.1.7.3 1.4.7 2.2 1 .7.3 1.4.5 2.1.8.2.1.4.1.6.2.6.2 1.3.4 1.9.6.4.1.8.3 1.2.5l1.2.6c.2.2.5.4.6.7.2.3.2.5.3.8 0 .3-.1.6-.2.8-.4.6-1.1 1.1-1.8 1.3-1 .4-2 .8-3.1 1.1-.6.2-1.2.3-1.8.5-.6.2-1.2.3-1.8.5-.6.2-1.2.3-1.8.4-.3.1-.7.1-1 .2-.2 0-.4.1-.6.1-.4.1-.9.2-1.3.3l-1.5.3c-.1 0-.3.1-.4.1-.3.3-.8.4-.4.4z" fill="url(#d)"/><path d="M24.6 74.5l-.9-1L1 93.6l.9 1z" fill="url(#e)"/><path d="M2.2 24.9l24.2 21.3.9-1L3.1 23.9z" fill="url(#f)"/></svg>