<svg xmlns="http://www.w3.org/2000/svg" viewBox="0 0 64 62"><path d="M34.862 44.807l-.556.618 14.949 13.22.556-.619zM19.79 43.82c.309 0 1.112-.062 2.841-.309.618-.124 1.298-.186 1.915-.309.803-.124 1.545-.309 2.348-.494.247-.062.432-.124.68-.185.123-.062.308-.062.431-.124.618-.185 1.607-.556 1.854-.618.864-.37 1.42-.68 1.73-1.359.123-.247.123-.556.123-.803s-.124-.494-.247-.68c-.124-.184-.31-.37-.433-.555a4.06 4.06 0 00-1.05-.741c-.123-.062-.247-.124-.309-.186-.123-.061-.308-.123-.432-.185-.185-.062-.432-.185-.618-.247-.556-.185-1.05-.37-1.606-.494-.309-.124-.618-.186-.926-.309l-.371-.185c-.124-.062-.309-.124-.432-.247-.186-.124-.433-.248-.371-.495.062-.185.247-.247.37-.308.124-.062.31-.124.433-.124.432-.124.865-.185 1.359-.309.123 0 .247-.062.37-.062.371-.061.68-.123 1.05-.247.31-.123.68-.309.742-.617.123-.433 0-.927-.247-1.36-.062-.123-.186-.246-.309-.432-.124-.185-.247-.37-.432-.556-.062-.061-.124-.061-.186-.061s-.309.308-2.224.679c-.37.062-.679.124-1.05.185-.247.062-.432.124-.68.124-.184.062-.431.123-.617.185-.185.062-.37.124-.618.185-.37.124-.74.371-1.05.618-.185.186-.37.31-.494.556-.123.124-.185.309-.247.433a1.163 1.163 0 00-.123.494c0 .494.308.926.68 1.235.123.124.246.185.37.309.37.247.803.494 1.235.68.433.185.865.432 1.36.617.431.185.864.31 1.296.494.124.062.247.062.37.124.372.123.804.247 1.175.37.247.062.494.186.74.31l.742.37c.124.124.309.247.37.432.124.186.124.31.186.495 0 .185-.062.37-.124.494-.247.37-.679.68-1.111.803-.618.247-1.236.494-1.915.68-.37.123-.742.185-1.112.308-.37.124-.741.185-1.112.309-.37.123-.741.185-1.112.247-.185.062-.432.062-.618.123-.123 0-.247.062-.37.062-.247.062-.556.124-.803.185l-.927.186c-.062 0-.185.061-.247.061-.185.248-.432.31-.247.248zm30.391-29.218c.309 0 1.112-.061 2.842-.309.617-.123 1.297-.185 1.914-.308.804-.124 1.545-.31 2.348-.495.247-.061.432-.123.68-.185.123-.062.308-.062.432-.123.617-.186 1.606-.556 1.853-.618.864-.37 1.42-.68 1.73-1.36.123-.246.123-.555.123-.802s-.124-.494-.247-.68c-.124-.185-.31-.37-.433-.556a4.058 4.058 0 00-1.05-.74c-.123-.063-.247-.124-.309-.186-.123-.062-.308-.124-.432-.185-.185-.062-.432-.186-.618-.248-.556-.185-1.05-.37-1.606-.494-.309-.123-.617-.185-.926-.309l-.37-.185c-.124-.062-.31-.123-.433-.247-.186-.123-.433-.247-.37-.494.06-.185.246-.247.37-.309.123-.062.309-.123.432-.123.433-.124.865-.186 1.36-.31.123 0 .246-.061.37-.061a6.46 6.46 0 001.05-.247c.309-.124.68-.309.741-.618.124-.432 0-.926-.247-1.359-.062-.123-.185-.247-.309-.432a3.39 3.39 0 00-.432-.556C58.582 2 58.52 2 58.458 2c-.061 0-.308.309-2.223.68-.371.061-.68.123-1.05.185-.248.062-.433.123-.68.123-.185.062-.432.124-.618.186a7.79 7.79 0 01-.617.185c-.371.123-.742.37-1.05.618-.186.185-.371.309-.495.556-.123.123-.185.308-.247.432a1.164 1.164 0 00-.123.494c0 .494.309.927.68 1.236.123.123.246.185.37.309.37.247.803.494 1.235.679.433.185.865.432 1.36.618.432.185.864.309 1.296.494.124.062.247.062.371.123.37.124.803.248 1.174.371.247.062.494.185.74.309l.742.37c.124.124.309.248.37.433.124.185.124.309.186.494 0 .185-.062.37-.123.494-.248.37-.68.68-1.112.803-.618.247-1.236.494-1.915.68-.37.123-.741.185-1.112.309-.37.123-.741.185-1.112.308-.37.124-.741.186-1.112.247-.185.062-.432.062-.618.124-.123 0-.247.062-.37.062-.247.062-.556.123-.803.185l-.927.185c-.062 0-.185.062-.247.062-.185.185-.432.247-.247.247zm-2.038 2.965l-.556-.617-14.022 12.415.556.618zM2.556 58.088l14.393-12.602-.556-.679L2 57.47zm15.196-28.785L2.556 15.775l-.556.68 15.196 13.527z" fill="#888"/></svg>