<svg xmlns="http://www.w3.org/2000/svg" viewBox="0 0 24 24"><path d="M16.5 13h-3v3a1 1 0 11-2 0v-3h-3a1 1 0 110-2h3V8a1 1 0 112 0v3h3a1 1 0 110 2zm-4-11c-1.8 0-3.555.192-5.245.558a5.472 5.472 0 00-4.197 4.196A24.762 24.762 0 002.5 12c0 1.8.192 3.555.558 5.245a5.472 5.472 0 004.196 4.196C8.945 21.808 10.7 22 12.5 22c1.8 0 3.555-.192 5.246-.559a5.473 5.473 0 004.196-4.196A24.76 24.76 0 0022.5 12c0-1.8-.192-3.555-.558-5.245a5.473 5.473 0 00-4.196-4.196A24.711 24.711 0 0012.5 2zm0 2c1.627 0 3.249.173 4.823.513a3.487 3.487 0 012.664 2.664 22.886 22.886 0 010 9.646 3.487 3.487 0 01-2.664 2.664 22.886 22.886 0 01-9.646 0 3.486 3.486 0 01-2.664-2.664 22.886 22.886 0 010-9.646 3.484 3.484 0 012.664-2.664A22.886 22.886 0 0112.5 4z" fill="currentColor"/></svg>
