<svg viewBox="0 0 24 24" xmlns="http://www.w3.org/2000/svg"><path d="M11.562 15c-1.654 0-3-1.346-3-3s1.346-3 3-3 3 1.346 3 3-1.346 3-3 3zm7.062-1.232l-.13-.076a1.838 1.838 0 01-.913-1.6l-.001-.13a1.85 1.85 0 01.913-1.653l.131-.077a1 1 0 00.366-1.366l-.999-1.732a1 1 0 00-1.367-.366l-.155.089c-.592.342-1.308.298-1.899-.044l-.02-.01c-.592-.341-.988-.941-.988-1.624V5a1 1 0 00-1-1h-2a1 1 0 00-1 1v.179c0 .683-.396 1.283-.988 1.624l-.02.01c-.591.342-1.307.386-1.899.044L6.5 6.768a1 1 0 00-1.366.366l-1 1.732a1 1 0 00.366 1.366l.142.082c.581.335.915.962.911 1.633l.001.089c.006.677-.326 1.312-.913 1.651l-.141.081a1 1 0 00-.366 1.366l1 1.732a1 1 0 001.366.366l.155-.089c.592-.342 1.308-.298 1.899.044l.02.01c.592.341.988.941.988 1.624V19a1 1 0 001 1h2a1 1 0 001-1v-.179c0-.683.396-1.283.988-1.624l.02-.01c.591-.342 1.307-.386 1.899-.044l.155.089a1 1 0 001.367-.366l.999-1.732a1 1 0 00-.366-1.366z" fill="currentColor"/></svg>