<?xml version="1.0" encoding="UTF-8" standalone="no"?>
<svg
   xmlns:dc="http://purl.org/dc/elements/1.1/"
   xmlns:cc="http://creativecommons.org/ns#"
   xmlns:rdf="http://www.w3.org/1999/02/22-rdf-syntax-ns#"
   xmlns:svg="http://www.w3.org/2000/svg"
   xmlns="http://www.w3.org/2000/svg"
   xmlns:sodipodi="http://sodipodi.sourceforge.net/DTD/sodipodi-0.dtd"
   xmlns:inkscape="http://www.inkscape.org/namespaces/inkscape"
   style="fill:none"
   height="115"
   width="115"
   id="svg39"
   version="1.1"
   viewBox="0 0 115 115"
   sodipodi:docname="favicon.svg"
   inkscape:export-filename="/home/martin-jurca/Stiahnuté/favicon.png"
   inkscape:export-xdpi="27.547827"
   inkscape:export-ydpi="27.547827"
   inkscape:version="0.92.3 (2405546, 2018-03-11)">
  <sodipodi:namedview
     pagecolor="#ffffff"
     bordercolor="#666666"
     borderopacity="1"
     objecttolerance="10"
     gridtolerance="10"
     guidetolerance="10"
     inkscape:pageopacity="0"
     inkscape:pageshadow="2"
     inkscape:window-width="640"
     inkscape:window-height="480"
     id="namedview23"
     showgrid="false"
     inkscape:zoom="5.4305801"
     inkscape:cx="-5.7805625"
     inkscape:cy="53.087986"
     inkscape:current-layer="svg39"
     fit-margin-top="0"
     fit-margin-left="0"
     fit-margin-right="0"
     fit-margin-bottom="0" />
  <metadata
     id="metadata43">
    <rdf:RDF>
      <cc:Work
         rdf:about="">
        <dc:format>image/svg+xml</dc:format>
        <dc:type
           rdf:resource="http://purl.org/dc/dcmitype/StillImage" />
        <dc:title></dc:title>
      </cc:Work>
    </rdf:RDF>
  </metadata>
  <path
     style="fill:url(#paint0_linear);stroke-width:0.66395283"
     id="path2"
     d="M 111.93333,0 H 3.066667 A 3.0666667,2.3 0 0 0 0,2.3 V 112.7 A 3.0666667,2.3 0 0 0 3.066667,115 H 111.93333 A 3.0666667,2.3 0 0 0 115,112.7 V 2.3 A 3.0666667,2.3 0 0 0 111.93333,0 Z"
     inkscape:connector-curvature="0" />
  <path
     id="path4"
     d="m 11.5,5.5003906 a 5.9999998,6.0497241 0 0 0 -6,6.0497244 v 92.762435 a 5.9999998,6.0497241 0 0 0 1.7402344,4.26557 c 0.1894894,0.19102 2.207201,2.88384 4.8417966,6.42188 H 111.93359 A 3.0666667,2.2686462 0 0 0 115,112.73137 V 18.153214 l -6.19922,-9.4467848 c 0,0 -3.60078,-3.2060386 -5.30078,-3.2060386 z"
     style="mix-blend-mode:multiply;fill:url(#paint1_linear);stroke-width:1.00413513"
     inkscape:connector-curvature="0" />
  <path
     style="fill:#ffffff"
     id="path6"
     d="m 11.5,5.4999969 h 26 V 37.499998 H 5.5 V 11.499997 a 5.9999998,6 0 0 1 6,-6.0000001 z m 61.999998,0 h -32 V 37.499998 h 32 z m 4,0 H 103.5 a 6.0019998,6.002 0 0 1 6,6.0000001 V 37.499998 H 77.499998 Z M 37.5,41.499998 h -32 v 32 h 32 z m 35.999998,0 h -32 v 32 h 32 z m 36.000002,0 H 77.499998 v 32 H 109.5 Z m -104,36 h 32 V 109.5 h -26 a 5.9999998,6 0 0 1 -6,-6 z m 67.999998,0 h -32 V 109.5 h 32 z m 4,0 H 109.5 V 103.5 a 6.0029998,6.003 0 0 1 -1.757,4.243 6.0029998,6.003 0 0 1 -4.243,1.757 H 77.499998 Z"
     inkscape:connector-curvature="0" />
  <path
     style="clip-rule:evenodd;fill:#d50911;fill-rule:evenodd"
     id="path8"
     d="m 21.71,13.509997 c -0.58,0.09 -1.17,0.2 -1.74,0.33 -0.39,0.08 -0.77,0.15 -1.15,0.25 -0.38,0.1 -0.71,0.17 -1,0.28 -0.29,0.11 -0.66,0.21 -1,0.34 a 5.8899998,5.89 0 0 0 -1.74,1 4.89,4.89 0 0 0 -0.87,0.89 c -0.169,0.24 -0.322,0.49 -0.46,0.75 a 1.87,1.87 0 0 0 -0.22,0.83 2.77,2.77 0 0 0 1.13,2.07 c 0.205,0.171 0.418,0.331 0.64,0.48 0.634,0.447 1.303,0.841 2,1.18 0.73,0.35 1.47,0.69 2.22,1 0.75,0.31 1.43,0.56 2.16,0.81 l 0.63,0.2 c 0.66,0.23 1.34,0.43 2,0.67 0.4,0.15 0.84,0.29 1.25,0.47 a 8.1699998,8.17 0 0 1 1.24,0.66 c 0.247,0.186 0.457,0.417 0.62,0.68 0.165,0.26 0.255,0.562 0.26,0.87 a 1.45,1.45 0 0 1 -0.23,0.830001 4.001,4.001 0 0 1 -1.81,1.38 31.94,31.94 0 0 1 -3.14,1.17 c -0.62,0.18 -1.23,0.36 -1.84,0.52 l -1.87,0.49 c -0.63,0.15 -1.25,0.3 -1.87,0.43 l -1.08,0.23 -0.64,0.14 -1.34,0.29 -1.53,0.33 -0.45,0.11 c -0.13,0 -0.62,0.14 -0.26,0.12 0.51,0 1.88,-0.15 4.79,-0.54 l 3.18,-0.5 c 1.31,-0.21 2.62,-0.47 3.92,-0.78 l 1.11,-0.28 0.73,-0.22 c 1,-0.32 2.66,-0.88 3,-1.05 1.48,-0.65 2.4,-1.14 2.88,-2.31 a 2.64,2.64 0 0 0 0.27,-1.330001 3,3 0 0 0 -0.39,-1.17 4.759,4.759 0 0 0 -0.77,-0.9 8.8199998,8.82 0 0 0 -1.84,-1.23 c -0.18,-0.09 -0.37,-0.19 -0.56,-0.27 l -0.69,-0.33 c -0.33,-0.14 -0.67,-0.26 -1,-0.38 -0.89,-0.31 -1.79,-0.58 -2.69,-0.87 -0.5,-0.17 -1,-0.35 -1.49,-0.56 l -0.62,-0.28 c -0.23,-0.11 -0.46,-0.24 -0.69,-0.37 -0.23,-0.13 -0.74,-0.47 -0.61,-0.86 0.13,-0.39 0.39,-0.4 0.65,-0.5 a 5.5,5.5 0 0 1 0.7,-0.18 c 0.74,-0.19 1.49,-0.31 2.24,-0.47 l 0.65,-0.15 c 0.59,-0.113 1.171,-0.267 1.74,-0.46 0.47,-0.19 1.09,-0.49 1.26,-1 a 2.64,2.64 0 0 0 -0.45,-2.24 l -0.44,-0.68 c -0.22,-0.3 -0.46,-0.59 -0.7,-0.89 a 0.31,0.31 0 0 0 -0.35,-0.09 c -0.14,0.05 -0.54,0.52 -3.73,1.14"
     inkscape:connector-curvature="0" />
  <path
     style="fill:#1d1b40"
     id="path10"
     d="m 51.789998,16.119997 h 2.89 v 7.75 c -0.022,0.802 0.015,1.604 0.11,2.4 a 2.35,2.35 0 0 0 0.88,1.410001 3.14,3.14 0 0 0 1.91,0.53 3,3 0 0 0 1.86,-0.5 2,2 0 0 0 0.75,-1.240001 c 0.103,-0.806 0.146,-1.618 0.13,-2.43 v -7.92 h 2.89 v 7.52 a 18.838,18.838 0 0 1 -0.24,3.64 4,4 0 0 1 -0.86,1.800001 4.33,4.33 0 0 1 -1.69,1.17 7.3099998,7.31 0 0 1 -2.75,0.43 7.9999998,8 0 0 1 -3.11,-0.47 4.49,4.49 0 0 1 -1.67,-1.23 c -0.385,-0.46 -0.662,-1 -0.81,-1.58 a 17.193,17.193 0 0 1 -0.29,-3.630001 z M 16.5,51.239998 h 5.28 a 9.9969998,9.997 0 0 1 2.73,0.28 4.73,4.73 0 0 1 2.16,1.31 6.3599998,6.36 0 0 1 1.36,2.32 c 0.337,1.097 0.496,2.242 0.47,3.39 a 9.4719998,9.472 0 0 1 -0.44,3 6.2899998,6.29 0 0 1 -1.56,2.57 5.15,5.15 0 0 1 -2,1.15 8.8309998,8.831 0 0 1 -2.56,0.3 H 16.5 Z m 2.89,2.42 v 9.49 h 2.16 a 7.9999998,8 0 0 0 1.75,-0.14 c 0.445,-0.1 0.857,-0.31 1.2,-0.61 a 3.07,3.07 0 0 0 0.76,-1.38 c 0.206,-0.857 0.287,-1.74 0.24,-2.62 a 8.3999998,8.4 0 0 0 -0.29,-2.55 3.42,3.42 0 0 0 -0.82,-1.39 2.79,2.79 0 0 0 -1.34,-0.67 12.998,12.998 0 0 0 -2.37,-0.14 z m 31.169998,4.83 a 8.9999998,9 0 0 1 0.65,-3.67 6.9099998,6.91 0 0 1 1.33,-2 5.639,5.639 0 0 1 1.85,-1.29 7.9969998,7.997 0 0 1 3.11,-0.53 6.6999998,6.7 0 0 1 5.06,2 7.5099998,7.51 0 0 1 1.88,5.4 7.5099998,7.51 0 0 1 -1.88,5.42 6.6699998,6.67 0 0 1 -5,2 6.7399998,6.74 0 0 1 -5.08,-2 7.3889998,7.389 0 0 1 -1.92,-5.33 z m 3,-0.1 a 5.37,5.37 0 0 0 1.12,3.69 3.68,3.68 0 0 0 2.82,1.25 3.632,3.632 0 0 0 2.84,-1.24 5.48,5.48 0 0 0 1.16,-3.69 5.38,5.38 0 0 0 -1.08,-3.67 3.65,3.65 0 0 0 -2.92,-1.26 3.699,3.699 0 0 0 -2.88,1.22 5.42,5.42 0 0 0 -1.12,3.71 z m -1.52,43.170002 V 87.239998 h 2.9 v 6.36 l 5.84,-6.36 h 3.88 l -5.39,5.58 5.69,8.740002 h -3.75 l -3.93,-6.720002 -2.34,2.39 V 101.56 Z M 87.79,87.119998 h 2.89 v 7.75 c -0.022,0.802 0.015,1.604 0.11,2.4 a 2.35,2.35 0 0 0 0.88,1.41 3.144,3.144 0 0 0 1.91,0.53 2.993,2.993 0 0 0 1.86,-0.5 c 0.396,-0.305 0.664,-0.747 0.75,-1.24 0.103,-0.806 0.146,-1.618 0.13,-2.43 v -7.92 h 2.89 v 7.52 a 18.802,18.802 0 0 1 -0.24,3.64 4.002,4.002 0 0 1 -0.86,1.800002 4.321,4.321 0 0 1 -1.69,1.17 7.5059998,7.506 0 0 1 -2.75,0.43 7.9899998,7.99 0 0 1 -3.11,-0.47 4.486,4.486 0 0 1 -1.67,-1.230002 4.006,4.006 0 0 1 -0.81,-1.59 17.191,17.191 0 0 1 -0.29,-3.63 z"
     inkscape:connector-curvature="0" />
  <path
     id="path12"
     d="M 8.6379558e-7,65 H 115 v 48.3871 a 3.0628333,1.610887 0 0 1 -0.89853,1.14032 A 3.0628333,1.610887 0 0 1 111.93333,115 H 3.0666669 A 3.0643666,1.6116935 0 0 1 8.6379558e-7,113.3871 Z"
     style="opacity:0.35;mix-blend-mode:multiply;fill:url(#paint2_linear);stroke-width:0.55600339"
     inkscape:connector-curvature="0" />
  <defs
     id="defs37">
    <linearGradient
       gradientTransform="scale(0.76666667,0.57499999)"
       gradientUnits="userSpaceOnUse"
       y2="197.00999"
       x2="75"
       y1="2"
       x1="75"
       id="paint0_linear">
      <stop
         id="stop16"
         stop-color="#DD3A41" />
      <stop
         id="stop18"
         stop-color="#DB2B32"
         offset=".14" />
      <stop
         id="stop20"
         stop-color="#D71820"
         offset=".36" />
      <stop
         id="stop22"
         stop-color="#D60D15"
         offset=".59" />
      <stop
         id="stop24"
         stop-color="#D50911"
         offset=".84" />
    </linearGradient>
    <linearGradient
       gradientTransform="matrix(1,0,0,1.0082873,-17.5,-23.74034)"
       gradientUnits="userSpaceOnUse"
       y2="172.58"
       x2="144.07001"
       y1="44.610001"
       x1="46.84"
       id="paint1_linear">
      <stop
         id="stop27"
         stop-color="#E0E0E0"
         offset=".16" />
      <stop
         id="stop29"
         stop-color="silver"
         offset=".94" />
    </linearGradient>
    <linearGradient
       gradientTransform="matrix(0.76666666,0,0,0.40322578,8.6379558e-7,34.354845)"
       gradientUnits="userSpaceOnUse"
       y2="201.00999"
       x2="75"
       y1="76"
       x1="75"
       id="paint2_linear">
      <stop
         id="stop32"
         stop-opacity="0"
         stop-color="#fff" />
      <stop
         id="stop34"
         stop-opacity=".5"
         offset="1" />
    </linearGradient>
  </defs>
</svg>
