<svg xmlns="http://www.w3.org/2000/svg" viewBox="0 0 260 206"><path d="M107 202c6.627 0 12-1.343 12-3s-5.373-3-12-3-12 1.343-12 3 5.373 3 12 3z" fill="#E8E8E8"/><path d="M173 104.08c-.28-2.39-1.48-13.29-1.75-15.74-.27-2.45-1.43-5-4.27-5.14-1.57-.06-3.07 1-4.25 2.1.83-9.44-3-17.75-2.81-22.73-.25-.71 3.3-14.06 3.3-14.06 1.46-7 2.42-15.59 2.42-15.59-2.38-4.75-5.91-8.59-11.54-12.59a10.573 10.573 0 00-4.47-1.63c-5.88-.88-10 3.23-11.88 2.47-2.8-1.15-4.45-1.9-7.71-3s-6.89-1.5-7.64-.08-1.34 8.09-1.17 9.86a32.982 32.982 0 001.86 7 5.12 5.12 0 00-.88.27 1.33 1.33 0 00-1.12 1.2.335.335 0 000 .1 2.085 2.085 0 000 .25.965.965 0 000 .17c0 .147.03.307.09.48.71 2.6 10.23 9 15.69 13.11 2.12 6.16-5.46 16.4-11.39 21.87-.53-1.95-1.86-3.45-5-2-6.57 2.94-8.57 12.53-8.31 16.78.22 3.61 4.07 5.11 6.3 5.62 0 7.77.25 15.68-1.89 17.32l-.21.15c-3.87.5-8 2.44-12.53 5.8-3.2 2.36-7.44 8.57-7.7 8.9l-.28.35-.36.47-.33.43-.32.42-.48.64-.26.35c-.15.2-.3.4-.43.6l-.21.28-.38.55-.14.2c-.17.24-.32.47-.46.69l-.11.16-.31.5c-.033.059-.07.116-.11.17-.12.2-.23.39-.32.57-3.42 6.33-.55 17.67-5.57 22.14a66.572 66.572 0 01-10.91 6.16s-3.76.87-5.78-1.21c-2.02-2.08-5-.61-4.24 6.77.76 7.38 9.7 3.75 18.21-1.24 8.51-4.99 16.53-8.92 17-13.36.34-3 .86-7.52 3.48-11.56a16.439 16.439 0 004.24 4.54 13.144 13.144 0 008.27 2.46c-2.81 3.44-6.59 5.44-9.19 6.8-4.13 2.18-4.6 11.1-5.9 20.88-1.3 9.78-1.08 19.43 6.46 17.3 7.54-2.13 7.74-5.47 4.85-6.53-2.89-1.06-3.62-4.87-3.62-4.87-.19-5.1 1.42-12.45 1.42-12.45 2.27-6.35 14.58-8.07 19.34-13.67.13-.15.27-.33.41-.52.046-.051.09-.104.13-.16.12-.15.23-.31.36-.49l.11-.15.48-.69.14-.21.37-.57c.069-.093.132-.19.19-.29.13-.2.27-.41.4-.63l.24-.38.42-.68c.09-.15.18-.31.28-.46l.28-.48.31-.51.22-.39c.22-.37.44-.74.66-1.13l.18-.32c.14-.24.28-.48.41-.72l.12-.21c.47-.83.94-1.67 1.41-2.54l3.62-7.62c.17-.365.301-.747.39-1.14 1.46-3 3.41-7.78 5.74-13.14a140.029 140.029 0 019.5-18.73 23.443 23.443 0 003.18-3 12.774 12.774 0 00-.43 6.62c.37 2.62 3.89 4 6.69 3.78 2.8-.22 7.75-2.29 7.49-4.67z" fill="url(#paint0_linear)"/><path d="M162.71 85.3c-2.24 2.34-5.53 4-9.27 5.38 2.5-14.49-.35-33-4.5-37-6.4-6.27-16.26-13.13-19-12.14-1.92.7 3.63 6.62 6.87 9 .78 2.29 0 6.48-1.69 9.38a47.604 47.604 0 01-8.79 11.61c-.15.22-.82.68-.91.88 1.17 3.51 1.15 7.72.78 12.23-1.06 11-7.69 8.2-7.8 8.12 0 7.77.9 16.64-1.54 17.69a44.545 44.545 0 00-13.49 9.6c-2.13 2.37-4.07 6-6.21 11.61-2.14 5.61-2 15.32-1.12 17.63.88 2.31 4.68-8.88 7.76-10.28a16.439 16.439 0 004.24 4.54 13.114 13.114 0 008.26 2.46c-1.72 2.11-6.67 8.2-7.47 10.13-.8 1.93 6.31.27 9-1 13.75-6.38 23-23.18 23.46-23.69.214-.347.447-.681.7-1 1.27-2.85 2.78-6.52 4.51-10.49a141.47 141.47 0 019.49-18.71l.19-.16.19-.15a25.783 25.783 0 002.8-2.65c1.45-7.02 1.22-10.52 3.54-12.99z" fill="url(#paint1_linear)"/><path d="M159.58 25.89c-.16-1.18-.54-5.36-1.56-6.8-1.2-1.7-3 2.07-3.13 3-.13.93 4.69 3.8 4.69 3.8zM171.62 28.63c-2 .49-5.12 1.48-8.26 2.44-3.17 2.77-1.55 14.82.63 13.5 2.18-1.32 9.19-1.74 9.19-1.74 10.74-.85 13.76-4.41 15.18-6.56.55-.83.85-1.69.47-2.08-.38-.39-2.1-.79-4.2-1.66-2.76-1.16-9.86-4.64-13.01-3.9z" fill="#0B0700"/><path d="M171 31c-1.37 1.24-3.76 6.26-4 7.52-.24 1.26 1.13 2.83 1.13 2.83s8.53-.28 11.66-1.79c0 0-4.72-2.77 0-5.91.02 0-7.4-3.89-8.79-2.65zM145.78 19.82c-2.89 1-5.26 2.23-4.33 5.11 1.4 4.34 9.21 7.81 7.23 13.63-1.08 3.17-3.18 4.84-1.78 6 3.56 2.85 11 2.89 16.57 2.67-1.82-8.22-5.86-9-5.59-13.12.4-6.04-3.38-17.18-12.1-14.29z" fill="#C48147"/><path d="M132.94 20.05c0 1.95-1.29 3.51-5.3 5-4.01 1.49-5.84-1.67-6.48-3a3.781 3.781 0 01-.17-3.6c.59-1.36 2.39-1.63 5.49-1.38 1.719.19 3.402.62 5 1.28.8.37 1.45.87 1.46 1.7zM165.8 33.08c-.76-4-5.18-9.3-11.47-12.92a10.734 10.734 0 00-8.55-.34c5.65-.26 9.88 3.32 9.14 7.26-1.45 7.7.09 16.72 8.55 20.11C166 38 166.55 37.1 165.8 33.08zM123.25 32.7c.221-1.248.647-2.45 1.26-3.56 1.42 2.37 9.35 6.4 12.2 7.7l.65.29c2.36 1.06 6.87.42 6.87.42-4.39 4-11.41-.46-14.65-1.86a10.57 10.57 0 00-6.51-.76c0-.06-.06-.13-.09-.22.29-.34.02-.95.27-2.01zM117.69 92.53c1 .16 7.25 2.48 8.55-7.92-.69 7.26-.17 12.73-.76 18.32-.44 4.17-7.65 9.36-8.92 7.12a43.706 43.706 0 001.13-17.52z" fill="#0B0700"/><path d="M126.51 34.82c-3-1-4.83-1-7-.17a8.999 8.999 0 00-5.18 5.2c-.49 1-.55 2.72.32 3.14.65.31 2.09.19 3-1.81 1.67-3.85 3.11-3.77 3.48-4a2.193 2.193 0 010-1c.24-.84 1.68-1.69 5.38-1.36z" fill="#ED425F"/><path d="M136.59 56.49c6-.31 15.83 2.45 23.31 6.08a9.865 9.865 0 01.33 3.61c-6.66-3-20.83-6.72-25.33-5.88a13.793 13.793 0 011.69-3.81z" fill="#D50911"/><path d="M149 26.45a.74.74 0 01-.49-.14.73.73 0 01-.13-1c.25-.32 1-1.43 0-2.22a1.93 1.93 0 00-2.43.11.71.71 0 01-.92-1.08 3.36 3.36 0 014.26-.14c1.29 1 1.39 2.73.24 4.22a.7.7 0 01-.53.25z" fill="#0B0700"/><path d="M91.42 73.06c-5.2-2-32.7-15.31-32.7-15.31S88 66.36 93.23 68.37a2.516 2.516 0 011.44 3.25 2.513 2.513 0 01-3.25 1.44zM40.94 92.19a2.512 2.512 0 003.25-1.44c2-5.2 7.61-26.69 7.61-26.69S41.51 83.74 39.5 88.94a2.52 2.52 0 001.44 3.25zm9.62-70.78a2.06 2.06 0 00-1.8 2.28c.54 4.53 4.7 22.22 4.7 22.22s-.08-18.17-.62-22.7a2.05 2.05 0 00-2.28-1.8zM18.25 59.23a2.06 2.06 0 002.17 1.94c4.58-.24 22.47-3.27 22.47-3.27s-18.14-1.08-22.69-.83a2.06 2.06 0 00-1.95 2.16zM80 31.14a2.063 2.063 0 00-2.91.16c-3 3.39-13.57 18.2-13.57 18.2s13.56-12.06 16.6-15.45a2.07 2.07 0 00-.12-2.91zm1.94 51.05a2.06 2.06 0 00.06-2.91c-3.18-3.28-17.16-14.9-17.16-14.9S75.85 78.83 79 82.12a2.048 2.048 0 002.91.07h.03zm-26 8.92a2.07 2.07 0 001.92-2.19c-.29-4.55-3.48-22.44-3.48-22.44s-.91 18.15-.62 22.71a2.06 2.06 0 002.11 1.92h.07zm-23.69-9.69a2.048 2.048 0 002.9-.14c3.07-3.38 13.69-18.12 13.69-18.12s-13.67 12-16.73 15.35a2 2 0 00.14 2.91zm-4.84-50.34a2.06 2.06 0 00-.07 2.92c3.16 3.29 17.14 14.9 17.14 14.9s-11-14.45-14.17-17.75a2.051 2.051 0 00-2.9-.07zm46.7-24.85a3.35 3.35 0 00-4.34 1.92c-2.77 7.19-13.15 43.4-13.15 43.4s16.63-33.8 19.41-41a3.36 3.36 0 00-1.92-4.32zm1 99.31a3.358 3.358 0 001.852-1.787A3.347 3.347 0 0077 101.18C74.09 94 56.93 60.49 56.93 60.49s10.95 36.05 13.84 43.2a3.352 3.352 0 004.36 1.85h-.02zM8.4 81.47a3.35 3.35 0 004.54 1.36C19.73 79.16 49 59.35 49 59.35S16.55 73.27 9.76 76.93a3.35 3.35 0 00-1.36 4.54zm23.3-69.76c2.94 7.13 19.44 40.91 19.44 40.91S39.05 17 36.11 9.9c-.7-1.72-2.26-2.7-3.48-2.19-1.22.51-1.63 2.29-.93 4zM92.25 46.5c-7.59 1.36-32.57 7.6-32.57 7.6s25.82-1.55 33.42-2.91c1.82-.33 3.11-1.64 2.87-2.94-.24-1.3-1.89-2.08-3.72-1.75zM16 44.53c7.2 2.78 31.79 10.41 31.79 10.41S24.89 42.86 17.7 40.08c-1.73-.66-3.51-.21-4 1-.49 1.21.55 2.78 2.3 3.45zm36.94 13a5.5 5.5 0 012.7 3.22 5.49 5.49 0 013.57-6.89 5.43 5.43 0 01-4.21-.32 5.49 5.49 0 01-2.71-3.21 5.5 5.5 0 01-3.57 6.89 5.5 5.5 0 014.2.35l.02-.04z" fill="url(#paint2_radial)"/><path d="M191.46 54.23c3.35 2.31 20.65 16.44 20.65 16.44s-19.38-11.11-22.74-13.42a1.844 1.844 0 01-.916-1.193 1.846 1.846 0 01.28-1.478 1.841 1.841 0 012.726-.329v-.02zm39.14-5a1.825 1.825 0 00-2.038-.03 1.825 1.825 0 00-.512.5c-2.32 3.36-10 17.69-10 17.69s10.66-12.25 13-15.61a1.813 1.813 0 00.323-1.385 1.816 1.816 0 00-.773-1.195v.03zM211.73 97.9a1.51 1.51 0 001.67-1.32c.39-3.31.43-16.6.43-16.6s-3 12.94-3.42 16.25a1.521 1.521 0 001.32 1.67zm29.4-21.41a1.5 1.5 0 00-.242-1.123 1.486 1.486 0 00-.968-.617c-3.28-.6-16.53-1.5-16.53-1.5s12.71 3.85 16 4.45a1.5 1.5 0 001.74-1.21zM192.48 86a1.496 1.496 0 001.552.614 1.5 1.5 0 00.538-.234c2.74-1.9 12.74-10.64 12.74-10.64S195.6 82 192.86 83.89a1.505 1.505 0 00-.621 1.568c.043.195.125.38.241.542zm7.29-36.63a1.502 1.502 0 00-.54 2.06c1.68 2.88 9.65 13.51 9.65 13.51s-5.37-12.15-7.06-15a1.487 1.487 0 00-1.489-.775 1.487 1.487 0 00-.561.185v.02zm20-1.92a1.51 1.51 0 00-1.74 1.23c-.56 3.29-1.33 16.55-1.33 16.55s3.73-12.75 4.3-16a1.511 1.511 0 00-1.2-1.8l-.03.02zM235 58.34a1.5 1.5 0 00-2.09-.39c-2.75 1.88-12.81 10.55-12.81 10.55s11.75-6.19 14.51-8.07a1.511 1.511 0 00.39-2.09zM229.84 95a1.489 1.489 0 00.54-2c-1.69-2.88-9.65-13.51-9.65-13.51s5.37 12.15 7.05 15a1.51 1.51 0 002.06.51zm-37.43 9.74a2.442 2.442 0 001.836.392 2.458 2.458 0 001.574-1.022c3.19-4.64 16.73-28.63 16.73-28.63S195 96.64 191.78 101.29a2.432 2.432 0 00.63 3.4v.05zm16.15-70.84a2.448 2.448 0 00-2.06 2.78c.84 5.58 7.34 32.34 7.34 32.34s-1.65-27.49-2.49-33.02a2.451 2.451 0 00-2.79-2.1zm43.36 28.45a2.45 2.45 0 00-3-1.73c-5.45 1.45-29.62 10.57-29.62 10.57s25.43-4.39 30.88-5.84a2.45 2.45 0 001.74-3zM223.49 108c-.87-5.57-6.87-32.4-6.87-32.4s2.55 27.37 3.43 32.94c.21 1.34 1.15 2.3 2.1 2.15.95-.15 1.55-1.36 1.34-2.69zm-37.14-35c5.63.32 24.45.13 24.45.13s-18.62-3.29-24.25-3.61c-1.35-.08-2.49.64-2.55 1.6-.06.96 1 1.77 2.35 1.88zm53.9 14.36c-4.64-3.19-20.84-12.8-20.84-12.8S233.63 87 238.27 90.21c1.12.76 2.46.74 3 0s.1-2.11-1.02-2.88v.03zM216.2 71.78a3.994 3.994 0 01-1.37-2.78 3.996 3.996 0 01-.963 2.916 3.997 3.997 0 01-2.747 1.374 3.997 3.997 0 013.877 2.2 4 4 0 01.413 1.51 3.977 3.977 0 01.191-1.554 3.989 3.989 0 012.008-2.323 4.003 4.003 0 011.511-.413 4.002 4.002 0 01-2.92-.93z" fill="url(#paint3_radial)"/><path d="M199.67 135.69c-1.8 2.62-12.82 16.1-12.82 16.1s8.66-15.1 10.46-17.72a1.429 1.429 0 011.99-.37 1.429 1.429 0 01.37 1.99zm3.92 30.51a1.428 1.428 0 00-.37-2c-2.62-1.8-13.79-7.75-13.79-7.75s9.55 8.31 12.17 10.11a1.422 1.422 0 001.99-.36zm-38-14.7a1.183 1.183 0 001 1.3c2.58.3 12.94.34 12.94.34s-10.08-2.37-12.67-2.67a1.172 1.172 0 00-1.23 1.03h-.04zm16.68 22.91a1.163 1.163 0 00.881-.185 1.176 1.176 0 00.489-.755c.46-2.56 1.16-12.89 1.16-12.89s-3 9.91-3.47 12.47a1.17 1.17 0 00.98 1.36h-.04zm-7.39-37.92a1.18 1.18 0 00-.3 1.63c1.48 2.14 8.3 9.93 8.3 9.93s-4.89-9.13-6.37-11.26a1.161 1.161 0 00-1.59-.3h-.04zm28.55 5.68a1.156 1.156 0 00-1.169-.572 1.164 1.164 0 00-.431.152c-2.25 1.31-10.53 7.52-10.53 7.52s9.47-4.18 11.71-5.5c.137-.073.258-.173.355-.294a1.148 1.148 0 00.105-1.306h-.04zm1.57 15.62a1.172 1.172 0 00-1-1.36c-2.56-.44-12.9-1-12.9-1s9.94 2.91 12.5 3.35c.158.033.32.033.478.001a1.183 1.183 0 00.763-.54c.084-.138.138-.291.159-.451zm-8.5 11.81a1.162 1.162 0 00.494-.75 1.182 1.182 0 00-.184-.88c-1.46-2.15-8.23-10-8.23-10s4.83 9.16 6.3 11.31a1.171 1.171 0 001.58.32h.04zm-28.53-4a1.156 1.156 0 001.169.572c.152-.022.299-.073.431-.152 2.24-1.31 10.53-7.52 10.53-7.52s-9.47 4.18-11.71 5.5a1.161 1.161 0 00-.46 1.61l.04-.01zm-7.59-29.17a1.901 1.901 0 00.49 2.65c3.62 2.49 22.31 13 22.31 13S166.61 138.44 163 136a1.902 1.902 0 00-2.118-.07 1.883 1.883 0 00-.542.51l.04-.01zM215.52 149a1.912 1.912 0 00-2.18-1.61c-4.34.66-25.2 5.72-25.2 5.72s21.42-1.29 25.77-1.94a1.918 1.918 0 001.61-2.17zm-22.18 33.79a1.908 1.908 0 001.399-1.596 1.905 1.905 0 00-.049-.744c-1.13-4.25-8.24-23.09-8.24-23.09s3.42 19.83 4.55 24.07a1.933 1.933 0 00.881 1.181 1.928 1.928 0 001.459.209v-.03zm-35.58-22.16c4.34-.68 25.25-5.35 25.25-5.35s-21.33 2-25.67 2.67c-1 .16-1.79.9-1.68 1.64.11.74 1.06 1.24 2.1 1.07v-.03zm27.3-28.95c-.25 4.39-.1 19.06-.1 19.06s2.56-14.51 2.81-18.9c.06-1.06-.49-1.94-1.24-2-.75-.06-1.41.82-1.47 1.87v-.03zm-11.19 42c2.49-3.62 10-16.24 10-16.24s-9.73 11.08-12.22 14.7a1.43 1.43 0 00-.438.52 1.444 1.444 0 00.473 1.829 1.442 1.442 0 001.877-.213c.155-.17.268-.374.328-.596h-.02zM186 155a3.12 3.12 0 012.14-1.07 3.128 3.128 0 01-3.35-2.89 3.107 3.107 0 01-2.89 3.34 3.128 3.128 0 013.35 2.89A3.105 3.105 0 01186 155z" fill="url(#paint4_radial)"/><defs><radialGradient id="paint2_radial" cx="0" cy="0" r="1" gradientUnits="userSpaceOnUse" gradientTransform="translate(52.25 55.902) scale(47.1478)"><stop offset=".09" stop-color="#FCF2AE"/><stop offset=".95" stop-color="#FCCA26"/></radialGradient><radialGradient id="paint3_radial" cx="0" cy="0" r="1" gradientUnits="userSpaceOnUse" gradientTransform="rotate(-166.527 113.335 24.334) scale(34.4521)"><stop offset=".09" stop-color="#FFD5EE"/><stop offset=".95" stop-color="#FF66B0"/></radialGradient><radialGradient id="paint4_radial" cx="0" cy="0" r="1" gradientUnits="userSpaceOnUse" gradientTransform="rotate(90 14.605 170.985) scale(28.27)"><stop offset=".09" stop-color="#D5F6FF"/><stop offset=".95" stop-color="#66EDFF"/></radialGradient><linearGradient id="paint0_linear" x1="106.92" y1="183.91" x2="144.85" y2="23.82" gradientUnits="userSpaceOnUse"><stop stop-color="#CFB7AA"/><stop offset=".12" stop-color="#DAC7BB"/><stop offset=".32" stop-color="#EADED4"/><stop offset=".51" stop-color="#F4EBE3"/><stop offset=".67" stop-color="#F7F0E8"/><stop offset="1" stop-color="#FFE9DE"/></linearGradient><linearGradient id="paint1_linear" x1="136.559" y1="48.874" x2="93.18" y2="153.573" gradientUnits="userSpaceOnUse"><stop stop-color="#E5D2CC" stop-opacity=".35"/><stop offset=".08" stop-color="#E1CCC5" stop-opacity=".47"/><stop offset=".23" stop-color="#DBC3B9" stop-opacity=".66"/><stop offset=".37" stop-color="#D5BCB0" stop-opacity=".81"/><stop offset=".52" stop-color="#D2B7A9" stop-opacity=".91"/><stop offset=".66" stop-color="#D0B4A5" stop-opacity=".98"/><stop offset=".8" stop-color="#CFB3A4"/></linearGradient></defs></svg>