<svg xmlns="http://www.w3.org/2000/svg" viewBox="0 0 250 200"><path d="M104 28l39 67-56 26-40-65 57-28z" fill="url(#paint0_linear)"/><path d="M74 71c17.673 0 32-14.327 32-32 0-17.673-14.327-32-32-32-17.673 0-32 14.327-32 32 0 17.673 14.327 32 32 32z" fill="url(#paint1_linear)"/><path d="M74 63.41c13.481 0 24.41-10.929 24.41-24.41S87.481 14.59 74 14.59 49.59 25.52 49.59 39 60.519 63.41 74 63.41z" fill="#fff"/><path d="M84 47a1.94 1.94 0 01-1-.29l-10-6a1.94 1.94 0 01-.89-1.15l-5-17a2 2 0 013.84-1.12l4.75 16.25 9.3 5.6A2 2 0 0184 47z" fill="#1D1B40"/><path d="M219.48 191l-19.8-5.61H81.45l-59.12-.76 20.62 6.28h51.38l.02.01 125.13.08z" fill="#F2F2F2"/><path d="M70.79 168.48c0-2.89-12-5.23-26.78-5.23-14.78 0-26.78 2.34-26.78 5.23l-1 17c0 3 12.45 5.43 27.8 5.43 15.35 0 27.8-2.43 27.8-5.43l-1.04-17z" fill="#D51116"/><path d="M44.01 172.14c12.228 0 22.14-1.666 22.14-3.72 0-2.055-9.912-3.72-22.14-3.72s-22.14 1.665-22.14 3.72c0 2.054 9.912 3.72 22.14 3.72z" fill="#87162E"/><path d="M64.08 170c-3.52 1.27-11.19 2.15-20.07 2.15-9.17 0-17-.94-20.4-2.27-1.12-.45 7.94-2.62 20.16-2.62 12.22 0 21.64 2.25 20.31 2.74z" fill="#DFE6F2"/><path d="M47.11 169.57c0 .64 1 1 2.22 1.16-2.22 0-5.56-.52-5.56-1.16 0-.64 2.67-1.16 5.56-1.16-1.15.22-2.22.52-2.22 1.16z" fill="#A9B3CC"/><path d="M203.51 136.13a160.205 160.205 0 00-4.89-24c-7.3-25.26-33.51-1.3-24.21 19.44 3.28 7.34 14.75 31.38 32.92 29.52 5.61-.57 5.61-6.48 2-10.18-2.9-2.91-5.04-8.91-5.82-14.78z" fill="#CFBDB8"/><path d="M211.32 159.89c2.76-14-12.49-9.55-13.33-.66-.45 4.82-.15 9.4-.36 13.93-.29 6.64 5.76 10.81 9 2.49a82.699 82.699 0 004.69-15.76z" fill="#CFBDB8"/><path d="M206.3 175c.41-3.49-8-2.62-10.12-1.2-2.12 1.42-5.8 3.77-8.47 5.67-2.67 1.9-3.53 5.94.58 5.94h11.11c3.79-.02 6.45-6.54 6.9-10.41zM134 155.78c-2.94-10.41-2.94-14.13-4.72-22.67-6.42-30.79-29.43-14.77-22 2.58 2.63 6.14 7.57 14.94 11.86 23.31 5.97 11.61 17.52 6.21 14.86-3.22z" fill="#CFBDB8"/><path d="M131.31 165c9.29-10.91-4.71-19.06-12.13-7.7-2.66 4.07-8.57 12.59-11.24 16.28-2.67 3.69-.5 13.26 6 7S127.91 169 131.31 165z" fill="#CFBDB8"/><path d="M116.76 175.67c.41-3.5-6.94-3.35-9.12-1.93-2.18 1.42-5.81 3.78-8.49 5.69-2.68 1.91-3.55 6 .57 6h11.15c3.81-.04 5.44-5.85 5.89-9.76z" fill="#CFBDB8"/><path d="M122.86 108.72c10.74-3.93 15.5-2.94 42.5-7.39 12.91-2.13 26-6.43 35.13-7 5.07-4.4 13.27-15.9 3.6-32a.362.362 0 01.068-.43.363.363 0 01.432-.05c10 6.59 16.82 23.46 8.53 36.34 2.15 1.66 2.44 1.59 5.46 5.86 4.49 6.36 1.79 20-7.77 23.37l-15.89 5.69c-14.58 4.19-28.53 15.39-34.4 18.18a36.161 36.161 0 01-6.42 2.65 45.378 45.378 0 01-16.54 1.67c-7.67-.77-12.1-4.74-17.45-8.66-7-5.17-25-6.64-30.37-.46-7.45-9.64-9.6-16.18-10.37-23 11.5-6.08 25.36-8.14 43.49-14.77z" fill="#EBDFD6"/><path d="M103.57 114.2c1-.81 3.46-1.16 4.61-1.16 6 6.82 9.94 20.13 8 32.51a6.39 6.39 0 01-4.59-1.38c1.56-10.17-2.85-24.27-8.02-29.97z" fill="#D51116"/><path d="M227.13 136.43a175.06 175.06 0 00-5.35-26.23c-8-27.6-36.61-1.41-26.45 21.25 3.59 8 16.11 34.28 36 32.25 6.12-.62 6.13-7.08 2.16-11.12-3.17-3.19-5.49-9.7-6.36-16.15z" fill="#EBDFD6"/><path d="M235.65 162.39c3-15.31-13.64-10.44-14.55-.73-.5 5.28-.17 10.27-.39 15.22-.33 7.27 6.28 11.81 9.86 2.72a90.033 90.033 0 005.08-17.21z" fill="#EBDFD6"/><path d="M230.18 179.63c.44-3.81-8.69-2.87-11.07-1.31-2.38 1.56-6.32 4.11-9.24 6.19S206 191 210.5 191h12.14c4.14 0 7.04-7.12 7.54-11.37zM155.49 155.88c-2.72-10.71-2.54-14.49-4.07-23.26-5.52-31.59-31.65-16.37-24.31 1.62 2.59 6.36 7.59 15.53 11.89 24.23 6 12.08 19 7.12 16.49-2.59z" fill="#EBDFD6"/><path d="M153.74 165c7.87-12.64-9-18.18-14.69-5.44-2.06 4.57-6.75 14.24-8.89 18.42-2.14 4.18 2.13 13.36 7.88 5.93s12.83-14.32 15.7-18.91z" fill="#EBDFD6"/><path d="M138.57 180.93c.42-3.57-7.06-3.42-9.28-2-2.22 1.42-5.91 3.85-8.64 5.79-2.73 1.94-3.6 6.06.59 6.06h11.34c3.87.03 5.53-5.88 5.99-9.85z" fill="#EBDFD6"/><path d="M135.77 105.34c10.25-1.36 16.3-1.74 29.95-4.14 4.77-.84 15.45-3.21 20.07-4.29.45 9.8-8.34 17.77-16.82 19.78-8.48 2.01-24.64-.06-33.2-11.35z" fill="#1A1A1A"/><path d="M57.05 159.2c-3.36 1.47-4.79 4.84-5.65 7.92-.86 3.08 4 4.87 5.87 2.19s1.53-5.72 6.91-7.59-3.76-3.99-7.13-2.52z" fill="#ED425F"/><path d="M74 120.36c-2-3.29-7.73-5.26-12.54-5-4.36.28-4.72 3.8-4.9 10.27-.18 6.47 4 5.17 4 5.17s14.9-8.1 13.44-10.44z" fill="#1A1A1A"/><path d="M95 122.53c-5.57-7.47-17.93-10.61-26.25-5.46-8.32 5.15-3.07 10.15-7.36 23.26-2.79 2.21-15.24 13.3-15.24 13.3a2.629 2.629 0 00-.16 3.68l1.8 2c3.59 4 9 5.22 14.27 4a51.292 51.292 0 0026.31-15.38c4.63-5.14 13.05-14.32 6.63-25.4z" fill="url(#paint2_linear)"/><path d="M88.55 147.47c9.71-8.82 11.7-20.12 4.31-26.54-5.47-7.18-15.93-9-24.16-3.89-8.23 5.11-3.07 10.15-7.36 23.27 2.76-1.08 3.28-12.56 4.66-17 .37-1.17 2.48-2.11 2.5-.47 0 5.26-.55 10.36 2.33 13.21 5.29 5.26 15.17-.38 17.72 11.42z" fill="#C48147"/><path d="M68.68 116.93c-2.64 1.77-5 3.86-5 7.58a1.253 1.253 0 011.055-.388 1.25 1.25 0 01.945.608c.06-.21.32-1.22.38-1.4.36-1.18 2.48-2.11 2.49-.48v2c6.18-5.23 9.46 0 15 3.38 4 2.46 7.44 2.29 13.13-1.48-2.35-12.94-19.23-15.67-28-9.82zM51.27 162.12a14.005 14.005 0 01-3.53-2.82l-1.8-2a2.63 2.63 0 01.16-3.68s3.32-2.94 3.79-3.31c4-.81 5 2 5.33 3.81.33 1.81-.94 6.44-3.95 8z" fill="#1A1A1A"/><path d="M75.186 133.983c1.435-.289 2.279-2.108 1.885-4.062-.394-1.955-1.876-3.305-3.31-3.016-1.435.289-2.28 2.108-1.885 4.063.393 1.954 1.876 3.304 3.31 3.015z" fill="#1F1207"/><path d="M72.28 117.82c-1.94-2.82 4.53-8.35 8.52-11.11 3.99-2.76 9.29-3.68 11.86-2.14 5.37 3.21 15 12.74 12.24 15.76-1.92 2.09-18.15.89-26.38-2.22a1.437 1.437 0 00-1.33.15l-2.6 1.74a.542.542 0 01-.73-.1c-.52-.62-1.05-1.31-1.58-2.08z" fill="#1A1A1A"/><defs><linearGradient id="paint0_linear" x1="109.85" y1="97.82" x2="75.07" y2="41.29" gradientUnits="userSpaceOnUse"><stop offset=".08" stop-color="#fff" stop-opacity="0"/><stop offset=".2" stop-color="#FCFCFC" stop-opacity=".21"/><stop offset=".37" stop-color="#F8F8F8" stop-opacity=".49"/><stop offset=".52" stop-color="#F4F4F4" stop-opacity=".71"/><stop offset=".65" stop-color="#F2F2F2" stop-opacity=".87"/><stop offset=".76" stop-color="#F1F1F1" stop-opacity=".96"/><stop offset=".82" stop-color="#F0F0F0"/></linearGradient><linearGradient id="paint1_linear" x1="60.58" y1="12.16" x2="87.46" y2="65.91" gradientUnits="userSpaceOnUse"><stop stop-color="#F1687F"/><stop offset=".8" stop-color="#ED425F"/></linearGradient><linearGradient id="paint2_linear" x1="42.665" y1="146.915" x2="105.726" y2="127.729" gradientUnits="userSpaceOnUse"><stop stop-color="#EBE7E4"/><stop offset="1" stop-color="#DFCEC4"/></linearGradient></defs></svg>